# xmcd CD database file
#
# Track frame offsets:
#	150
#	21250
#	37917
#	56602
#
# Disc length: 1041 seconds
#
# Revision: 2
# Processed by: cddbd v1.5.1PL2 Copyright (c) Steve Scherf et al.
# Submitted via: CDex 1.70beta2
#
DISCID=29040f04
DTITLE=Nessa Morgan - Sex and Poverty (Promotional Sampler)
DYEAR=2004
DGENRE=Blues
TTITLE0=Nothing But Love
TTITLE1=Simple Kinda Woman
TTITLE2=Happy Day
TTITLE3=Woman's Work
EXTD=YEAR: 2004
EXTT0=
EXTT1=
EXTT2=
EXTT3=
PLAYORDER=
